<svg xmlns="http://www.w3.org/2000/svg" viewBox="0 0 640 360"><defs><marker id="a" markerWidth="10" markerHeight="10" refX="8" refY="3" orient="auto"><path d="M0,0 L8,3 L0,6 Z" fill="#f97316"/></marker><linearGradient id="g" x1="0" x2="1"><stop stop-color="#111827"/><stop offset="1" stop-color="#0f172a"/></linearGradient></defs><rect width="640" height="360" rx="28" fill="url(#g)"/><circle cx="180" cy="70" r="28" fill="#e5e7eb"/><path d="M180 98 L180 190" stroke="#e5e7eb" stroke-width="18" stroke-linecap="round"/><path d="M180 130 L120 205" stroke="#e5e7eb" stroke-width="16" stroke-linecap="round"/><path d="M180 130 L240 205" stroke="#e5e7eb" stroke-width="16" stroke-linecap="round"/><path d="M160 195 L140 305 M200 195 L220 305" stroke="#e5e7eb" stroke-width="18" stroke-linecap="round"/><rect x="93" y="202" width="54" height="18" rx="6" fill="#64748b"/><rect x="213" y="202" width="54" height="18" rx="6" fill="#64748b"/><circle cx="460" cy="70" r="28" fill="#e5e7eb"/><path d="M460 98 L460 190" stroke="#e5e7eb" stroke-width="18" stroke-linecap="round"/><path d="M460 132 C420 135 405 160 395 190" stroke="#e5e7eb" stroke-width="16" stroke-linecap="round"/><path d="M460 132 C500 135 515 160 525 190" stroke="#e5e7eb" stroke-width="16" stroke-linecap="round"/><path d="M440 195 L420 305 M480 195 L500 305" stroke="#e5e7eb" stroke-width="18" stroke-linecap="round"/><rect x="366" y="182" width="54" height="18" rx="6" fill="#64748b" transform="rotate(-25 393 191)"/><rect x="500" y="182" width="54" height="18" rx="6" fill="#64748b" transform="rotate(25 527 191)"/><path d="M315 245 C315 195 315 150 315 105" stroke="#f97316" stroke-width="12" stroke-linecap="round" marker-end="url(#a)"/><path d="M335 105 C335 155 335 200 335 245" stroke="#38bdf8" stroke-width="8" stroke-linecap="round" opacity=".85" marker-end="url(#a)"/></svg>