<svg xmlns="http://www.w3.org/2000/svg" viewBox="0 0 640 360"><defs><marker id="a" markerWidth="10" markerHeight="10" refX="8" refY="3" orient="auto"><path d="M0,0 L8,3 L0,6 Z" fill="#f97316"/></marker><linearGradient id="g" x1="0" x2="1"><stop stop-color="#111827"/><stop offset="1" stop-color="#0f172a"/></linearGradient></defs><rect width="640" height="360" rx="28" fill="url(#g)"/><rect x="120" y="250" width="400" height="22" rx="10" fill="#475569"/><g fill="none" stroke="#e5e7eb" stroke-linecap="round"><circle cx="330" cy="78" r="26" fill="#e5e7eb" stroke="none"/><path d="M330 104 C340 145 350 178 362 220" stroke-width="18"/><path d="M355 150 L430 230" stroke-width="16"/><path d="M322 150 L255 230" stroke-width="16"/><path d="M365 220 L430 305 M310 222 L250 305" stroke-width="18"/><path d="M430 230 C455 238 470 255 480 280" stroke-width="16"/></g><rect x="452" y="275" width="54" height="18" rx="6" fill="#64748b" transform="rotate(18 479 284)"/><path d="M490 286 C485 235 460 198 420 178" stroke="#f97316" stroke-width="12" fill="none" stroke-linecap="round" marker-end="url(#a)"/><path d="M418 180 C455 204 480 238 490 286" stroke="#38bdf8" stroke-width="8" fill="none" opacity=".85" stroke-linecap="round" marker-end="url(#a)"/></svg>