<svg xmlns="http://www.w3.org/2000/svg" viewBox="0 0 640 360"><defs><marker id="a" markerWidth="10" markerHeight="10" refX="8" refY="3" orient="auto"><path d="M0,0 L8,3 L0,6 Z" fill="#f97316"/></marker><linearGradient id="g" x1="0" x2="1"><stop stop-color="#111827"/><stop offset="1" stop-color="#0f172a"/></linearGradient></defs><rect width="640" height="360" rx="28" fill="url(#g)"/><rect x="120" y="250" width="400" height="22" rx="10" fill="#475569"/><g fill="none" stroke="#e5e7eb" stroke-linecap="round"><circle cx="310" cy="78" r="26" fill="#e5e7eb" stroke="none"/><path d="M310 104 C300 145 290 178 278 220" stroke-width="18"/><path d="M285 150 L210 230" stroke-width="16"/><path d="M318 150 L385 230" stroke-width="16"/><path d="M275 220 L210 305 M330 222 L390 305" stroke-width="18"/><path d="M210 230 C185 238 170 255 160 280" stroke-width="16"/></g><rect x="134" y="275" width="54" height="18" rx="6" fill="#64748b" transform="rotate(-18 161 284)"/><path d="M150 286 C155 235 180 198 220 178" stroke="#f97316" stroke-width="12" fill="none" stroke-linecap="round" marker-end="url(#a)"/><path d="M222 180 C185 204 160 238 150 286" stroke="#38bdf8" stroke-width="8" fill="none" opacity=".85" stroke-linecap="round" marker-end="url(#a)"/></svg>