<svg xmlns="http://www.w3.org/2000/svg" viewBox="0 0 640 360"><defs><marker id="a" markerWidth="10" markerHeight="10" refX="8" refY="3" orient="auto"><path d="M0,0 L8,3 L0,6 Z" fill="#f97316"/></marker><linearGradient id="g" x1="0" x2="1"><stop stop-color="#111827"/><stop offset="1" stop-color="#0f172a"/></linearGradient></defs><rect width="640" height="360" rx="28" fill="url(#g)"/><g fill="none" stroke="#e5e7eb" stroke-linecap="round"><circle cx="180" cy="70" r="28" fill="#e5e7eb" stroke="none"/><path d="M180 98 L180 190" stroke-width="18"/><path d="M180 130 L120 210 M180 130 L240 210" stroke-width="16"/><path d="M160 195 L140 305 M200 195 L220 305" stroke-width="18"/></g><rect x="111" y="194" width="18" height="58" rx="6" fill="#64748b"/><rect x="231" y="194" width="18" height="58" rx="6" fill="#64748b"/><g fill="none" stroke="#e5e7eb" stroke-linecap="round"><circle cx="460" cy="70" r="28" fill="#e5e7eb" stroke="none"/><path d="M460 98 L460 190" stroke-width="18"/><path d="M460 132 C420 140 405 160 395 190" stroke-width="16"/><path d="M460 132 C500 140 515 160 525 190" stroke-width="16"/><path d="M440 195 L420 305 M480 195 L500 305" stroke-width="18"/></g><rect x="386" y="168" width="18" height="58" rx="6" fill="#64748b" transform="rotate(-18 395 197)"/><rect x="516" y="168" width="18" height="58" rx="6" fill="#64748b" transform="rotate(18 525 197)"/><path d="M315 248 C315 200 315 154 315 106" stroke="#f97316" stroke-width="12" stroke-linecap="round" marker-end="url(#a)"/><path d="M335 106 C335 154 335 200 335 248" stroke="#38bdf8" stroke-width="8" stroke-linecap="round" opacity=".85" marker-end="url(#a)"/></svg>