<svg xmlns="http://www.w3.org/2000/svg" viewBox="0 0 640 360"><defs><marker id="a" markerWidth="10" markerHeight="10" refX="8" refY="3" orient="auto"><path d="M0,0 L8,3 L0,6 Z" fill="#f97316"/></marker><linearGradient id="g" x1="0" x2="1"><stop stop-color="#111827"/><stop offset="1" stop-color="#0f172a"/></linearGradient></defs><rect width="640" height="360" rx="28" fill="url(#g)"/><g fill="none" stroke="#e5e7eb" stroke-linecap="round"><circle cx="205" cy="70" r="28" fill="#e5e7eb" stroke="none"/><path d="M205 98 L205 190" stroke-width="18"/><path d="M205 130 L145 210 M205 130 L265 210" stroke-width="16"/><path d="M185 195 L165 305 M225 195 L245 305" stroke-width="18"/><circle cx="420" cy="70" r="28" fill="#e5e7eb" stroke="none"/><path d="M420 98 L420 190" stroke-width="18"/><path d="M420 132 C380 130 365 155 355 185" stroke-width="16"/><path d="M420 132 C460 130 475 155 485 185" stroke-width="16"/><path d="M400 195 L380 305 M440 195 L460 305" stroke-width="18"/></g><rect x="118" y="203" width="54" height="18" rx="6" fill="#64748b"/><rect x="238" y="203" width="54" height="18" rx="6" fill="#64748b"/><rect x="330" y="176" width="54" height="18" rx="6" fill="#64748b" transform="rotate(-24 357 185)"/><rect x="458" y="176" width="54" height="18" rx="6" fill="#64748b" transform="rotate(24 485 185)"/><path d="M535 292 A130 130 0 0 1 535 70" stroke="#f97316" stroke-width="13" fill="none" stroke-linecap="round" marker-end="url(#a)"/><path d="M560 70 A130 130 0 0 0 560 292" stroke="#38bdf8" stroke-width="8" fill="none" opacity=".75" stroke-linecap="round" marker-end="url(#a)"/></svg>